<svg width="126" height="31" viewBox="0 0 126 31" fill="none" xmlns="http://www.w3.org/2000/svg">
<path d="M0.34 30V5.052H15.208L14.596 9.264H6.244V15.888H13.516V20.1H6.244V30H0.34ZM30.8224 24.456C30.8224 25.176 30.9184 25.704 31.1104 26.04C31.3264 26.376 31.6624 26.628 32.1184 26.796L30.9304 30.504C29.7544 30.408 28.7944 30.156 28.0504 29.748C27.3064 29.316 26.7304 28.644 26.3224 27.732C25.0744 29.652 23.1544 30.612 20.5624 30.612C18.6664 30.612 17.1544 30.06 16.0264 28.956C14.8984 27.852 14.3344 26.412 14.3344 24.636C14.3344 22.548 15.1024 20.952 16.6384 19.848C18.1744 18.744 20.3944 18.192 23.2984 18.192H25.2424V17.364C25.2424 16.236 25.0024 15.468 24.5224 15.06C24.0424 14.628 23.2024 14.412 22.0024 14.412C21.3784 14.412 20.6224 14.508 19.7344 14.7C18.8464 14.868 17.9344 15.108 16.9984 15.42L15.7024 11.676C16.9024 11.22 18.1264 10.872 19.3744 10.632C20.6464 10.392 21.8224 10.272 22.9024 10.272C25.6384 10.272 27.6424 10.836 28.9144 11.964C30.1864 13.092 30.8224 14.784 30.8224 17.04V24.456ZM22.2184 26.544C23.5144 26.544 24.5224 25.932 25.2424 24.708V21.324H23.8384C22.5424 21.324 21.5704 21.552 20.9224 22.008C20.2984 22.464 19.9864 23.172 19.9864 24.132C19.9864 24.9 20.1784 25.5 20.5624 25.932C20.9704 26.34 21.5224 26.544 22.2184 26.544ZM46.1891 10.272C48.4691 10.272 50.2211 11.172 51.4451 12.972C52.6691 14.748 53.2811 17.244 53.2811 20.46C53.2811 22.428 52.9691 24.18 52.3451 25.716C51.7451 27.252 50.8691 28.452 49.7171 29.316C48.5891 30.18 47.2451 30.612 45.6851 30.612C44.6531 30.612 43.7051 30.396 42.8411 29.964C42.0011 29.532 41.2811 28.932 40.6811 28.164L40.3931 30H35.3531V3.288L41.0411 2.676V12.828C41.6171 12.036 42.3491 11.412 43.2371 10.956C44.1491 10.5 45.1331 10.272 46.1891 10.272ZM44.0291 26.472C46.2611 26.472 47.3771 24.468 47.3771 20.46C47.3771 18.18 47.1131 16.608 46.5851 15.744C46.0571 14.88 45.2891 14.448 44.2811 14.448C43.0091 14.448 41.9291 15.192 41.0411 16.68V24.636C41.4011 25.212 41.8331 25.668 42.3371 26.004C42.8651 26.316 43.4291 26.472 44.0291 26.472ZM62.5216 10.884V30H56.8336V10.884H62.5216ZM59.6416 0.803998C60.6256 0.803998 61.4296 1.116 62.0536 1.74C62.7016 2.34 63.0256 3.108 63.0256 4.044C63.0256 4.98 62.7016 5.76 62.0536 6.384C61.4296 6.984 60.6256 7.284 59.6416 7.284C58.6576 7.284 57.8536 6.984 57.2296 6.384C56.6056 5.76 56.2936 4.98 56.2936 4.044C56.2936 3.108 56.6056 2.34 57.2296 1.74C57.8536 1.116 58.6576 0.803998 59.6416 0.803998ZM82.1857 24.456C82.1857 25.176 82.2817 25.704 82.4737 26.04C82.6897 26.376 83.0257 26.628 83.4817 26.796L82.2937 30.504C81.1177 30.408 80.1577 30.156 79.4137 29.748C78.6697 29.316 78.0937 28.644 77.6857 27.732C76.4377 29.652 74.5177 30.612 71.9257 30.612C70.0297 30.612 68.5177 30.06 67.3897 28.956C66.2617 27.852 65.6977 26.412 65.6977 24.636C65.6977 22.548 66.4657 20.952 68.0017 19.848C69.5377 18.744 71.7577 18.192 74.6617 18.192H76.6057V17.364C76.6057 16.236 76.3657 15.468 75.8857 15.06C75.4057 14.628 74.5657 14.412 73.3657 14.412C72.7417 14.412 71.9857 14.508 71.0977 14.7C70.2097 14.868 69.2977 15.108 68.3617 15.42L67.0657 11.676C68.2657 11.22 69.4897 10.872 70.7377 10.632C72.0097 10.392 73.1857 10.272 74.2657 10.272C77.0017 10.272 79.0057 10.836 80.2777 11.964C81.5497 13.092 82.1857 14.784 82.1857 17.04V24.456ZM73.5817 26.544C74.8777 26.544 75.8857 25.932 76.6057 24.708V21.324H75.2017C73.9057 21.324 72.9337 21.552 72.2857 22.008C71.6617 22.464 71.3497 23.172 71.3497 24.132C71.3497 24.9 71.5417 25.5 71.9257 25.932C72.3337 26.34 72.8857 26.544 73.5817 26.544ZM97.9124 10.272C99.5684 10.272 100.864 10.776 101.8 11.784C102.736 12.792 103.204 14.208 103.204 16.032V30H97.5164V17.004C97.5164 16.044 97.3604 15.384 97.0484 15.024C96.7604 14.64 96.3164 14.448 95.7164 14.448C94.5644 14.448 93.4604 15.276 92.4044 16.932V30H86.7164V10.884H91.6844L92.0804 13.152C92.8964 12.192 93.7724 11.472 94.7084 10.992C95.6684 10.512 96.7364 10.272 97.9124 10.272ZM115.774 10.272C118.702 10.272 120.994 11.172 122.65 12.972C124.306 14.748 125.134 17.244 125.134 20.46C125.134 22.5 124.75 24.288 123.982 25.824C123.238 27.336 122.158 28.512 120.742 29.352C119.35 30.192 117.694 30.612 115.774 30.612C112.87 30.612 110.578 29.724 108.898 27.948C107.242 26.148 106.414 23.64 106.414 20.424C106.414 18.384 106.786 16.608 107.53 15.096C108.298 13.56 109.378 12.372 110.77 11.532C112.186 10.692 113.854 10.272 115.774 10.272ZM115.774 14.448C114.622 14.448 113.758 14.94 113.182 15.924C112.606 16.884 112.318 18.384 112.318 20.424C112.318 22.512 112.594 24.036 113.146 24.996C113.722 25.956 114.598 26.436 115.774 26.436C116.926 26.436 117.79 25.956 118.366 24.996C118.942 24.012 119.23 22.5 119.23 20.46C119.23 18.372 118.942 16.848 118.366 15.888C117.814 14.928 116.95 14.448 115.774 14.448Z" fill="black"/>
</svg>
